<svg xmlns="http://www.w3.org/2000/svg" width="15" height="16"><path fill="currentColor" d="M14.539 7.046c.61-.184 1.265.201 1.378.83.165.92.092 1.925-.288 2.948-.75 2.022-2.76 3.304-4.918 3.304H6.462a.547.547 0 0 0-.547.547v1.031c0 .242-.277.38-.47.235l-3.222-2.418a.558.558 0 0 1 .001-.893l3.221-2.408a.294.294 0 0 1 .47.236v.983c0 .303.245.548.547.548H10.7c1.073 0 2.112-.52 2.656-1.446.476-.808.58-1.574.456-2.26-.1-.544.197-1.077.727-1.237ZM11.085.294c0-.242.277-.38.47-.235l3.222 2.418a.558.558 0 0 1-.001.893l-3.221 2.408a.294.294 0 0 1-.47-.236V4.56a.548.548 0 0 0-.547-.548H6.3c-1.073 0-2.112.52-2.656 1.446-.476.808-.58 1.574-.456 2.26.1.544-.197 1.077-.727 1.237-.61.184-1.265-.201-1.378-.83-.165-.92-.092-1.925.288-2.948.75-2.022 2.76-3.304 4.918-3.304h4.249a.547.547 0 0 0 .547-.547Z"></path></svg>